<?xml version="1.0" encoding="UTF-8"?>
<svg width="24px" height="24px" viewBox="0 0 24 24" version="1.1" xmlns="http://www.w3.org/2000/svg" xmlns:xlink="http://www.w3.org/1999/xlink">
    <title>24x24/On Dark/Insights</title>
    <g id="页面-2" stroke="none" stroke-width="1" fill="none" fill-rule="evenodd">
        <g id="工作台-更多" transform="translate(-1005.000000, -287.000000)">
            <g id="24x24/On-Dark/Insights" transform="translate(1005.000000, 287.000000)">
                <rect id="view-box" x="0" y="0" width="24" height="24"></rect>
                <path d="M15,4.75 C16.2426407,4.75 17.25,5.75735931 17.25,7 L17.25,16.0278993 L18.75,16.0278993 L18.75,7 C18.75,4.92893219 17.0710678,3.25 15,3.25 L5,3.25 C4,3.25 4,4.75 5,4.75 C5.91911977,4.75 6.25,5.08088023 6.25,6 C6.25,7.20181406 6.25,7.20181406 6.25,8.2861462 L6.25,11.5 C6.25,14 6.25,14 6.25,17 C6.25,19.0710678 7.92893219,20.75 10,20.75 L18,20.75 L18,19.25 L10,19.25 C8.75735931,19.25 7.75,18.2426407 7.75,17 C7.75,14 7.75,14 7.75,11.5 L7.75,6 C7.75,5.52706198 7.67657992,5.10869494 7.53484089,4.75 L15,4.75 Z" id="Shape" fill="#FFFFFF" fill-rule="nonzero"></path>
                <path d="M10,19.25 L10,20.75 L10,20.75 C9.04166667,20.75 9.00173611,19.3723958 9.88020833,19.2575955 L10,19.25 Z M21,15.25 C21.4142136,15.25 21.75,15.5857864 21.75,16 L21.75,17 C21.75,19.0710678 20.0710678,20.75 18,20.75 L10,20.75 L10.2513949,20.7439093 C11.4871082,20.6830794 12.4036164,20.1677599 12.9879072,19.25 L12.9879072,19.25 L10,19.25 C11.53125,19.25 12.25,18.2916667 12.25,16 C12.25,15.5857864 12.5857864,15.25 13,15.25 L21,15.25 Z M20.25,16.75 L13.7220151,16.75 C13.6429618,17.7685064 13.3967729,18.6077846 12.9879072,19.25 L18,19.25 C19.2426407,19.25 20.25,18.2426407 20.25,17 L20.25,16.75 Z M5,3.25 C6.51878306,3.25 7.75,4.48121694 7.75,6 L7.75,8 C7.75,8.41421356 7.41421356,8.75 7,8.75 L3,8.75 C2.58578644,8.75 2.25,8.41421356 2.25,8 L2.25,6 C2.25,4.48121694 3.48121694,3.25 5,3.25 Z M5,4.75 C4.30964406,4.75 3.75,5.30964406 3.75,6 L3.75,7.25 L6.25,7.25 L6.25,6 C6.25,5.30964406 5.69035594,4.75 5,4.75 Z" id="Shape" fill="#FFFFFF" fill-rule="nonzero"></path>
            </g>
        </g>
    </g>
</svg>