<?xml version="1.0" encoding="UTF-8"?>
<svg width="24px" height="24px" viewBox="0 0 24 24" version="1.1" xmlns="http://www.w3.org/2000/svg" xmlns:xlink="http://www.w3.org/1999/xlink">
    <title>24x24/On Dark/Edit</title>
    <g id="页面-2" stroke="none" stroke-width="1" fill="none" fill-rule="evenodd">
        <g id="工作台-更多" transform="translate(-1107.000000, -288.000000)">
            <g id="24x24/On-Dark/Edit" transform="translate(1107.000000, 288.000000)">
                <rect id="view-box" x="0" y="0" width="24" height="24"></rect>
                <path d="M18.5591807,4.0470062 L19.9529938,5.4408193 C21.0156687,6.50349424 21.0156687,8.22643073 19.9529938,9.28910566 L8.71176938,20.5303301 C8.57111709,20.6709824 8.38035166,20.75 8.18143929,20.75 L4,20.75 C3.58578644,20.75 3.25,20.4142136 3.25,20 L3.25,15.8185607 C3.25,15.6196483 3.32901763,15.4288829 3.46966991,15.2882306 L14.7108943,4.0470062 C15.7735693,2.98433127 17.4965058,2.98433127 18.5591807,4.0470062 Z M12.659,8.22 L4.75,16.1292209 L4.75,19.25 L7.87077912,19.25 L15.779,11.34 L12.659,8.22 Z M15.7715545,5.10766637 L13.72,7.159 L16.84,10.279 L18.8923336,8.22844549 C19.3692221,7.75155699 19.3692221,6.97836797 18.8923336,6.50147947 L17.4985205,5.10766637 C17.021632,4.63077788 16.248443,4.63077788 15.7715545,5.10766637 Z" id="Shape" fill="#FFFFFF" fill-rule="nonzero"></path>
            </g>
        </g>
    </g>
</svg>