<?xml version="1.0" encoding="utf-8"?>
<!-- Generator: Adobe Illustrator 23.0.0, SVG Export Plug-In . SVG Version: 6.00 Build 0)  -->
<svg version="1.1" id="图层_1" xmlns="http://www.w3.org/2000/svg" xmlns:xlink="http://www.w3.org/1999/xlink" x="24px" y="24px"
	 viewBox="0 0 99.02 111.64" style="enable-background:new 0 0 99.02 111.64;" xml:space="preserve">
<style type="text/css">
	.st0{fill:url(#SVGID_1_);}
</style>
<linearGradient id="SVGID_1_" gradientUnits="userSpaceOnUse" x1="87.8456" y1="94.1566" x2="18.6915" y2="25.0024">
	<stop  offset="0" style="stop-color:#1546FF"/>
	<stop  offset="1" style="stop-color:#1BD17E"/>
</linearGradient>
<path class="st0" d="M60.7,40.64l0,18.56c0,2.03-1.08,3.9-2.84,4.91l-16.07,9.28c-1.76,1.01-3.92,1.01-5.67,0l-16.07-9.28
	c-1.76-1.01-2.84-2.89-2.84-4.91l0-18.56c0-2.03,1.08-3.9,2.84-4.91l16.07-9.28c1.76-1.01,3.92-1.01,5.67,0l16.07,9.28
	C59.62,36.74,60.7,38.62,60.7,40.64z M43.3,92.62c-1.35,0.78-2.85,1.17-4.35,1.17c-1.5,0-3.01-0.39-4.35-1.17L0,72.64l0,6.73
	c0,3.11,1.66,5.98,4.35,7.54l40.8,23.56c2.69,1.55,6.01,1.55,8.7,0l13.79-7.96L50.8,88.28L43.3,92.62z M94.67,24.73L53.86,1.17
	c-2.69-1.55-6.01-1.55-8.7,0l-6.23,3.6l34.82,20.05c2.69,1.55,4.35,4.43,4.35,7.54l0,35.16c0,3.11-1.66,5.98-4.35,7.54l-8.27,4.77
	l3.9,21.7l25.29-14.6c2.69-1.55,4.35-4.43,4.35-7.53l0-47.12C99.02,29.16,97.36,26.28,94.67,24.73z"/>
</svg>
