<?xml version="1.0" encoding="utf-8"?>
<!-- Generator: Adobe Illustrator 23.0.0, SVG Export Plug-In . SVG Version: 6.00 Build 0)  -->
<svg version="1.1" id="图层_1" xmlns="http://www.w3.org/2000/svg" xmlns:xlink="http://www.w3.org/1999/xlink" x="24px" y="24px"
	 viewBox="0 0 99.02 111.64" style="enable-background:new 0 0 99.02 111.64;" xml:space="preserve">
<style type="text/css">
	.st0{fill:#FFFFFF;}
</style>
<g>
	<path class="st0" d="M57.86,35.73l-16.07-9.28c-1.76-1.01-3.92-1.01-5.67,0l-16.07,9.28c-1.76,1.01-2.84,2.89-2.84,4.91l0,18.56
		c0,2.03,1.08,3.9,2.84,4.91l16.07,9.28c1.76,1.01,3.92,1.01,5.67,0l16.07-9.28c1.76-1.01,2.84-2.89,2.84-4.91l0-18.56
		C60.7,38.62,59.62,36.74,57.86,35.73z"/>
	<path class="st0" d="M43.3,92.62c-1.35,0.78-2.85,1.17-4.35,1.17c-1.5,0-3.01-0.39-4.35-1.17L0,72.64l0,6.73
		c0,3.11,1.66,5.98,4.35,7.54l40.8,23.56c2.69,1.55,6.01,1.55,8.7,0l13.79-7.96L50.8,88.28L43.3,92.62z"/>
	<path class="st0" d="M94.67,24.73L53.86,1.17c-2.69-1.55-6.01-1.55-8.7,0l-6.23,3.6l34.82,20.05c2.69,1.55,4.35,4.43,4.35,7.54
		l0,35.16c0,3.11-1.66,5.98-4.35,7.54l-8.27,4.77l3.9,21.7l25.29-14.6c2.69-1.55,4.35-4.43,4.35-7.53l0-47.12
		C99.02,29.16,97.36,26.28,94.67,24.73z"/>
</g>
</svg>
