<?xml version="1.0" encoding="utf-8"?>
<!-- Generator: Adobe Illustrator 23.0.0, SVG Export Plug-In . SVG Version: 6.00 Build 0)  -->
<svg version="1.1" id="图层_1" xmlns="http://www.w3.org/2000/svg" xmlns:xlink="http://www.w3.org/1999/xlink" x="0px" y="0px"
	 viewBox="0 0 431.99 111.64" style="enable-background:new 0 0 431.99 111.64;" xml:space="preserve">
<style type="text/css">
	.st0{fill:#FFFFFF;}
</style>
<g>
	<g>
		<g>
			<g>
				<polygon class="st0" points="306.48,27.61 336.88,27.61 336.88,34.25 341.06,34.25 341.06,23.42 341.05,23.42 341.05,23.42 
					323.72,23.42 323.72,19.52 319.55,19.52 319.55,23.42 302.31,23.42 302.31,23.42 302.3,23.42 302.3,34.25 306.48,34.25 				"/>
				<path class="st0" d="M320.1,37.6v-3.9c0,0,0-0.01,0-0.01l-8.57-3.63c-0.11-0.05-0.24,0.04-0.24,0.16v3.9c0,0,0,0.01,0,0.01
					l8.57,3.63C319.98,37.81,320.1,37.72,320.1,37.6z"/>
				<path class="st0" d="M308.13,36.32v3.86l8.95,3.46c0.11,0.04,0.24-0.04,0.24-0.16v-3.86l-8.95-3.46
					C308.25,36.12,308.13,36.2,308.13,36.32z"/>
				<path class="st0" d="M328.39,30.79l-4.18-0.03c0,0.08-0.07,7.63-1.37,14.45h-20.92v4.18h19.31c-3.63,4.75-13.3,7.62-18.18,8.59
					v4.06c0,0.1,0.1,0.18,0.2,0.16c11.53-2.34,17.91-6.15,21.04-9.99c2.87,2.39,9.12,6.99,15.74,10.02
					c0.11,0.05,0.24-0.03,0.24-0.16v-4.37c-5.24-2.64-10.17-6.16-12.82-8.31h14.04v-4.18h-14.4
					C328.34,38.26,328.39,31.13,328.39,30.79z"/>
			</g>
			<g>
				<polygon class="st0" points="394.06,27.18 426.37,27.18 426.37,33.5 430.36,33.5 430.36,27.18 430.36,23.61 426.37,23.61 
					412.38,23.61 412.38,19.5 408.03,19.5 408.03,23.61 394.06,23.61 390.07,23.61 390.07,27.18 390.07,33.5 394.06,33.5 				"/>
				<polygon class="st0" points="412.21,58.27 412.21,52.94 428.14,52.94 428.14,49.73 412.21,49.73 412.21,45.26 421.15,45.26 
					425.99,45.26 423.49,41.7 423.49,41.7 421.56,38.95 416.7,38.93 418.64,41.7 401.48,41.7 405.12,35.97 425.05,35.97 
					425.05,32.41 395.38,32.41 395.38,35.97 400.42,35.97 394.52,45.26 399.22,45.26 408.22,45.26 408.22,49.73 393.6,49.73 
					393.6,52.94 408.22,52.94 408.22,58.27 389.19,58.27 389.19,61.83 431.24,61.83 431.24,58.27 				"/>
			</g>
			<g>
				<path class="st0" d="M370.35,43.56l2.49,11.27h3.76c0.12,0,0.22-0.12,0.19-0.24l-2.49-11.27h-3.76
					C370.42,43.32,370.33,43.44,370.35,43.56z"/>
				<path class="st0" d="M362.91,43.54l2.75,11.53h3.8c0.11,0,0.19-0.1,0.17-0.21l-2.75-11.53h-3.8
					C362.97,43.32,362.89,43.43,362.91,43.54z"/>
				<path class="st0" d="M373.85,19.02c-1.49,1.55-7.17,7.23-12.84,12.73v5.7c0,0.15,0.18,0.23,0.29,0.13
					c4.46-4.19,9.36-8.78,12.55-12.04c3.19,3.25,8.29,7.83,12.74,12.02c0.12,0.11,0.31,0.03,0.31-0.14v-5.68
					C381.11,26.28,375.35,20.57,373.85,19.02z"/>
				<rect x="366.33" y="34.76" class="st0" width="15.26" height="3.57"/>
				<path class="st0" d="M360.32,39.95h-1.26V24.57v-3.57h-3.98h-9.36v3.57h9.36v15.37h-3.62V27.67h-3.98v12.27v2.9v0.67h8.87v14.96
					h-6.48c-0.14,0-0.24,0.13-0.2,0.26l1.04,3.3h9.61v-0.04h0.01V40.8h-0.01V39.95z"/>
				<path class="st0" d="M385.5,42.07h-3.92l-5.57,16.36h-13.67V62h23.23v-3.57h-5.36l5.48-16.1
					C385.74,42.2,385.64,42.07,385.5,42.07z"/>
				<rect x="345.28" y="47.82" class="st0" width="9.64" height="4.28"/>
			</g>
			<g>
				<rect x="135.31" y="52.44" class="st0" width="19.09" height="3.51"/>
				<path class="st0" d="M122.3,45.95c0,6.38-0.51,11.22-1.57,15.51c-0.11,0.4,0.01,0.5,0.22,0.5c0.07,0,2.92,0,3.51,0
					c1.17-5.89,1.33-10.78,1.35-14.33h4.91v10.91h-3.48c-0.17,0-0.3,0.11-0.21,0.35l0.96,3.15h6.23V21.09h-11.9V45.95z M125.8,24.59
					h4.9v8.33h-4.9V24.59z M125.8,36.08h4.9v8.4h-4.9V36.08z"/>
				<path class="st0" d="M155.75,35.31h4.7v-3.16h-13.7c0.41-1.01,0.79-2.09,1.12-3.26h11.71v-3.16h-3.43
					c0.57-1.95,1.25-4.25,1.28-4.39c0.07-0.23-0.05-0.32-0.21-0.32h-2.98l-1.38,4.71h-4.21c0.39-1.83,0.74-3.85,1.05-6.12
					c0.04-0.26-0.1-0.32-0.28-0.32c-0.14,0-2.45,0-3.39,0c-0.35,2.41-0.71,4.49-1.17,6.43h-2.07l-1.38-4.71h-2.98
					c-0.15,0-0.27,0.09-0.21,0.32c0.04,0.13,0.71,2.44,1.28,4.39h-3.34v3.16h7.8c-0.32,1-0.78,2.17-1.28,3.26h-7.38v3.16h5.54
					c-2.24,3.18-4.62,4.64-5.58,5.23c0,0.45,0,3.51,0,3.61c0,0.18,0.14,0.37,0.71,0.05c1.04-0.59,2.14-1.25,3.26-2.08h13.04
					l-0.11,4.73h-10.3l0.16-2.83c0-0.12-0.09-0.21-0.21-0.21c-0.2,0-3.29,0-3.29,0l-0.33,5.98c0,0.12,0.09,0.21,0.21,0.21
					c0.2,0,17.76,0,17.76,0v8.54h-8.01c-0.17,0-0.3,0.11-0.21,0.35l0.96,3.15h11.11v-15.2h-4.35l0.14-6.14
					c1.63,1.52,3.28,2.64,4.78,3.5c0.57,0.32,0.71,0.13,0.71-0.05c0-0.1,0-3.16,0-3.61C160.37,39.95,157.98,38.48,155.75,35.31z
					 M142.68,38.95c0.89-1.03,1.75-2.23,2.55-3.65h6.23c0.84,1.38,1.74,2.59,2.67,3.65H142.68z"/>
			</g>
			<g>
				<path class="st0" d="M203.65,21h-24.2v3.51h7.28v12.79h-8.35v3.51h8.35v21.45h3.85V40.8h9.21v21h7.27v-3.51h-3.42V21z
					 M199.8,37.29h-9.21V24.51h9.21V37.29z"/>
				<path class="st0" d="M181.9,50c-0.06,0.05-3.33,2.53-6.49,4.93v-22.8h-9v3.86h5.17v21.85c-1.23,0.94-2.07,1.57-2.07,1.57
					l2.11,2.8l10.62-8.06c0,0,0-3.87,0-3.97C182.24,49.98,182.04,49.9,181.9,50z"/>
				<path class="st0" d="M172.09,28.67c0,0,4.11,0,4.21,0c0.19,0,0.26-0.2,0.18-0.33c-0.08-0.12-5.31-8.12-5.31-8.12s-4.05,0-4.21,0
					c-0.16,0-0.27,0.18-0.19,0.32C166.86,20.67,172.09,28.67,172.09,28.67z"/>
			</g>
			<g>
				<g>
					<g>
						<rect x="210.84" y="34.58" class="st0" width="42.65" height="2.91"/>
					</g>
					<path class="st0" d="M234.02,57.34h16.73v-2.91h-16.73v-2.17h15.45V39.09h-34.64v13.16h15.48v2.17h-16.73v2.91h16.73v1.54
						h-19.48v3.28h42.65v-3.28h-19.48V57.34z M245.4,49.34h-11.39v-2.39h11.39V49.34z M245.4,42.01v2.39h-11.39v-2.39H245.4z
						 M230.32,42.01v2.39H218.9v-2.39H230.32z M218.9,49.34v-2.39h11.41v2.39H218.9z"/>
					<path class="st0" d="M249.47,20.75h-34.64v12.43h34.64v-0.34V20.75z M245.4,24.03v1.66h-26.5v-1.66H245.4z M218.9,29.9v-1.66
						h26.5v1.66H218.9z"/>
				</g>
			</g>
			<g>
				<g>
					<path class="st0" d="M300.8,39.35h-19.47v-3.17l15.52-10.31l0-0.83h0v-4.06h-35.53v4.06h29.42l-13.9,9.25v5.07h-19.47v4.06
						h19.47v14.57h-8.45c-0.22,0-0.38,0.22-0.3,0.42l1.34,3.64h7.41h4.42h0.08V43.41h19.47V39.35z"/>
				</g>
			</g>
		</g>
		<g>
			<g>
				<polygon class="st0" points="385.01,70.18 382.35,70.18 382.35,92.05 397.62,92.05 397.62,89.62 385.01,89.62 				"/>
				<path class="st0" d="M424.45,75.25c-2.11,0-4.13,0.88-5.4,2.33v-7.77h-2.69v21.87h2.69v-1.97c0.91,1.11,2.89,2.35,5.43,2.35
					c4.57,0,7.52-3.28,7.52-8.36C431.99,77.47,428.09,75.25,424.45,75.25z M429.43,83.51c0,0.25-0.06,6.2-5.07,6.2
					c-3.35,0-5.11-3.06-5.11-6.08c0-4.72,3.36-5.97,5.14-5.97C427.87,77.66,429.43,80.6,429.43,83.51z"/>
				<path class="st0" d="M410.86,89.92v1.77h2.45V80.66c0-3.34-2.4-5.41-6.26-5.41c-1.39,0-4.13,0.3-6.42,1.92v2.37
					c0,0.13,0.15,0.2,0.26,0.13c2.38-1.71,4.89-1.93,6-1.93c1.43,0,3.84,0.37,3.84,2.81v1.37c-0.43-0.04-2.23-0.25-3.97-0.25
					c-0.55,0-1.7,0.09-2.45,0.24c-2.09,0.43-4.84,1.45-4.59,5.33c0.24,3.8,3.72,4.82,5.74,4.82
					C407.67,92.05,409.69,91.21,410.86,89.92z M407.48,83.95c1.29,0,2.76,0.28,3.22,0.37v1.01c0,1.37-1.25,4.38-4.98,4.38
					c-2.04,0-3.35-0.87-3.52-2.33c-0.26-2.33,1.32-2.95,2.72-3.22C405.64,84.03,406.44,83.95,407.48,83.95z"/>
				<g>
					<path class="st0" d="M264,91.8l-2.01-2.51c1.81-2.06,2.77-4.88,2.77-8.17l0-0.02c-0.01-6.87-4.25-11.49-10.57-11.49
						c-6.32,0-10.57,4.63-10.57,11.51c0,3.37,1.01,6.25,2.91,8.33c1.91,2.08,4.56,3.18,7.66,3.18c0,0,0,0,0,0
						c2.25,0,4.31-0.6,5.99-1.74l0.92,1.18l2.77,0C264.01,92.05,264.08,91.9,264,91.8z M255.53,85.09l3.08,3.8
						c-1.25,0.78-2.73,1.18-4.41,1.18c-4.93,0-8.12-3.52-8.12-8.96c0-5.44,3.19-8.96,8.12-8.96c4.93,0,8.12,3.52,8.12,8.96
						c0,2.48-0.66,4.61-1.91,6.17l-1.98-2.46h-2.77C255.52,84.83,255.44,84.99,255.53,85.09z"/>
					<path class="st0" d="M295.16,90.11v1.77h2.45V80.84c0-3.34-2.4-5.41-6.26-5.41c-1.39,0-4.13,0.3-6.42,1.92v2.37
						c0,0.13,0.15,0.2,0.26,0.13c2.38-1.71,4.89-1.93,6-1.93c1.43,0,3.84,0.37,3.84,2.81v1.37c-0.43-0.04-2.23-0.25-3.97-0.25
						c-0.55,0-1.7,0.09-2.45,0.24c-2.09,0.43-4.84,1.45-4.59,5.33c0.24,3.8,3.72,4.82,5.74,4.82
						C291.96,92.24,293.98,91.39,295.16,90.11z M291.78,84.14c1.29,0,2.76,0.28,3.22,0.37v1.01c0,1.37-1.25,4.38-4.98,4.38
						c-2.04,0-3.35-0.87-3.52-2.33c-0.26-2.33,1.32-2.95,2.72-3.22C289.93,84.22,290.73,84.14,291.78,84.14z"/>
					<path class="st0" d="M278.97,83.79c0,4.36-2.55,5.9-4.74,5.9c-2.12,0-4.37-1.44-4.37-4.12v-9.96h-2.53v9.91
						c0,3.84,2.78,6.52,6.77,6.52c2.21,0,3.93-0.73,5.02-2.13v1.75h2.41V75.62h-2.57V83.79z"/>
					<path class="st0" d="M341.17,83.79c0,4.36-2.55,5.9-4.74,5.9c-2.12,0-4.37-1.44-4.37-4.12v-9.96h-2.53v9.91
						c0,3.84,2.78,6.52,6.77,6.52c2.21,0,3.93-0.73,5.02-2.13v1.75h2.41V75.62h-2.57V83.79z"/>
					<path class="st0" d="M363.3,75.6c-3.24-0.01-4.77,1.88-5.26,2.67c-0.16-0.29-0.44-0.74-0.9-1.18
						c-0.71-0.69-1.98-1.52-4.01-1.53c-1.76-0.01-3.13,0.53-4.07,1.61l0.01-1.25l-2.69-0.01l-0.06,16.06l2.61,0.01l0.04-9.61
						c0.01-1.44,0.44-2.64,1.23-3.39c0.7-0.66,1.66-0.98,2.86-0.94c2.88,0.09,3.63,2.89,3.63,4.36L356.64,92l2.53,0.01l0.04-9.61
						c0.01-2.16,1.38-4.34,3.97-4.33c1.28,0.01,2.26,0.51,2.92,1.5c0.5,0.76,0.79,1.8,0.79,2.86l-0.04,9.61l2.57,0.01l0.04-10.52
						C369.47,78.6,367.36,75.61,363.3,75.6z"/>
					<path class="st0" d="M322.74,92.05c1.56-0.08,3.34-0.75,3.34-0.75v-2.42c0-0.11-0.11-0.19-0.21-0.15
						c-0.61,0.21-2.02,0.64-2.75,0.74c-0.27,0.04-0.5,0.08-0.68-0.07c-0.12-0.1-0.18-0.23-0.18-0.51V78.11h4.7v-2.34h-4.7v-4.28
						h-2.67v4.28h-2.68v2.34h2.68v11.05c0,0.95,0.29,1.69,0.87,2.19C321.01,91.81,321.8,92.05,322.74,92.05z"/>
					<path class="st0" d="M307.67,75.62c-2.03,0-3.76,0.67-4.91,1.9v-1.53h-2.51v16.07h2.57V82.9c0-1.51,0.47-2.8,1.32-3.62
						c0.92-0.89,2.05-1.3,3.47-1.25c2.01,0.06,4.04,1.37,4.04,4.16v9.87h2.57v-9.98c0-1.98-0.64-3.63-1.85-4.77
						C311.2,76.2,309.58,75.62,307.67,75.62z"/>
				</g>
			</g>
			<g>
				<polygon class="st0" points="119.94,70.34 119.94,72.73 127.61,72.73 127.61,92.21 130.27,92.21 130.27,72.73 137.95,72.73 
					137.95,70.34 				"/>
				<path class="st0" d="M185.7,88.2c0-0.14-0.16-0.21-0.27-0.12c-1.73,1.54-4.24,2.14-5.34,2.14c-3.57,0-5.87-2.35-5.87-6
					c0-3.64,2.3-6,5.87-6c1.1,0,3.54,0.3,5.34,1.84c0.1,0.09,0.27,0.02,0.27-0.12v-2.41c-1.09-0.68-3.38-1.72-5.75-1.72
					c-4.92,0-8.23,3.38-8.23,8.41c0,5.03,3.31,8.41,8.23,8.41c2.04,0,4.03-0.54,5.75-1.72V88.2z"/>
				<path class="st0" d="M150.97,87.68c0-0.15-0.2-0.22-0.29-0.09c-1.18,1.53-4,2.77-5.74,2.77c-1.66,0-3.22-0.54-4.07-1.41
					c-1.03-1.05-1.6-2.5-1.58-3.99h12.43v-0.19c0-3.45-0.6-5.41-2.13-6.98c-1.28-1.31-3.04-1.98-5.24-1.98
					c-4.65,0-7.65,3.28-7.65,8.35c0.17,5.28,3.22,8.44,8.15,8.44c2.35,0,4.34-0.78,6.13-2.31V87.68z M149.2,82.71h-9.92l0-0.05
					c0.11-1.39,0.73-2.59,1.81-3.47c0.86-0.7,1.99-1.08,3.18-1.08c2.9,0,4.78,1.75,4.92,4.55L149.2,82.71z"/>
				<path class="st0" d="M162.16,75.81c-2.03,0-3.76,0.67-4.91,1.9v-1.53h-2.51v16.07h2.57v-9.16c0-1.51,0.47-2.8,1.32-3.62
					c0.92-0.89,2.06-1.3,3.47-1.25c2.01,0.06,4.04,1.37,4.04,4.16v9.87h2.57v-9.98c0-1.98-0.64-3.63-1.85-4.77
					C165.69,76.39,164.06,75.81,162.16,75.81z"/>
				<path class="st0" d="M202.46,87.68c0-0.15-0.2-0.22-0.29-0.09c-1.18,1.53-4,2.77-5.74,2.77c-1.66,0-3.22-0.54-4.07-1.41
					c-1.03-1.05-1.6-2.5-1.58-3.99h12.43v-0.19c0-3.45-0.6-5.41-2.13-6.98c-1.28-1.31-3.04-1.98-5.24-1.98
					c-4.65,0-7.65,3.28-7.65,8.35c0.17,5.28,3.22,8.44,8.15,8.44c2.35,0,4.34-0.78,6.13-2.31V87.68z M200.69,82.71h-9.92l0-0.05
					c0.11-1.39,0.73-2.59,1.81-3.47c0.86-0.7,1.99-1.08,3.18-1.08c2.9,0,4.78,1.75,4.92,4.55L200.69,82.71z"/>
				<path class="st0" d="M213.6,75.81c-2.03,0-3.76,0.67-4.91,1.9v-1.53h-2.51v16.07h2.57v-9.16c0-1.51,0.47-2.8,1.32-3.62
					c0.92-0.89,2.06-1.3,3.47-1.25c2.01,0.06,4.04,1.37,4.04,4.16v9.87h2.57v-9.98c0-1.98-0.64-3.63-1.85-4.77
					C217.14,76.39,215.51,75.81,213.6,75.81z"/>
				<path class="st0" d="M228.54,92.46c1.56-0.08,3.34-0.75,3.34-0.75v-2.42c0-0.11-0.11-0.19-0.21-0.15
					c-0.61,0.21-2.02,0.64-2.75,0.74c-0.27,0.04-0.5,0.08-0.68-0.07c-0.12-0.1-0.18-0.23-0.18-0.51V78.51h4.7v-2.34h-4.7v-4.28
					h-2.67v4.28h-2.68v2.34h2.68v11.05c0,0.95,0.29,1.69,0.87,2.19C226.8,92.21,227.59,92.46,228.54,92.46z"/>
			</g>
		</g>
	</g>
	<g>
		<path class="st0" d="M57.86,35.73l-16.07-9.28c-1.76-1.01-3.92-1.01-5.67,0l-16.07,9.28c-1.76,1.01-2.84,2.89-2.84,4.91l0,18.56
			c0,2.03,1.08,3.9,2.84,4.91l16.07,9.28c1.76,1.01,3.92,1.01,5.67,0l16.07-9.28c1.76-1.01,2.84-2.89,2.84-4.91l0-18.56
			C60.7,38.62,59.62,36.74,57.86,35.73z"/>
		<path class="st0" d="M43.3,92.62c-1.35,0.78-2.85,1.17-4.35,1.17c-1.5,0-3.01-0.39-4.35-1.17L0,72.64l0,6.73
			c0,3.11,1.66,5.98,4.35,7.54l40.8,23.56c2.69,1.55,6.01,1.55,8.7,0l13.79-7.96L50.8,88.28L43.3,92.62z"/>
		<path class="st0" d="M94.67,24.73L53.86,1.17c-2.69-1.55-6.01-1.55-8.7,0l-6.23,3.6l34.82,20.05c2.69,1.55,4.35,4.43,4.35,7.54
			l0,35.16c0,3.11-1.66,5.98-4.35,7.54l-8.27,4.77l3.9,21.7l25.29-14.6c2.69-1.55,4.35-4.43,4.35-7.53l0-47.12
			C99.02,29.16,97.36,26.28,94.67,24.73z"/>
	</g>
</g>
</svg>
